<svg xmlns="http://www.w3.org/2000/svg" viewBox="0 0 200 200" role="img" aria-hidden="true">
  <rect width="200" height="200" fill="var(--diagram-bg)" rx="12" />
  <circle cx="100" cy="84" r="36" fill="none" stroke="var(--diagram-stroke)" stroke-width="3" />
  <path d="M 72 58 Q 78 34 90 54" fill="none" stroke="var(--diagram-stroke)" stroke-width="3" stroke-linecap="round" />
  <path d="M 128 58 Q 122 34 110 54" fill="none" stroke="var(--diagram-stroke)" stroke-width="3" stroke-linecap="round" />
  <ellipse cx="88" cy="80" rx="6" ry="8" fill="var(--diagram-stroke)" />
  <ellipse cx="112" cy="80" rx="6" ry="8" fill="var(--diagram-stroke)" />
  <path d="M 94 94 L 100 100 L 106 94" fill="none" stroke="var(--diagram-stroke)" stroke-width="2" stroke-linejoin="round" />
  <path d="M 92 104 Q 100 110 108 104" fill="none" stroke="var(--diagram-stroke)" stroke-width="2" stroke-linecap="round" />
  <ellipse cx="100" cy="150" rx="48" ry="40" fill="none" stroke="var(--diagram-stroke)" stroke-width="3" />
  <path d="M 78 176 Q 78 168 80 162" fill="none" stroke="var(--diagram-stroke)" stroke-width="4" stroke-linecap="round" />
  <path d="M 100 178 Q 100 170 100 164" fill="none" stroke="var(--diagram-stroke)" stroke-width="4" stroke-linecap="round" />
  <path d="M 122 176 Q 122 168 120 162" fill="none" stroke="var(--diagram-stroke)" stroke-width="4" stroke-linecap="round" />
  <path d="M 144 172 Q 144 166 142 160" fill="none" stroke="var(--diagram-stroke)" stroke-width="4" stroke-linecap="round" />
  <path d="M 140 128 Q 172 100 178 72" fill="none" stroke="var(--diagram-stroke)" stroke-width="3" stroke-linecap="round" />
  <line x1="62" y1="88" x2="48" y2="86" stroke="var(--diagram-stroke)" stroke-width="2" stroke-linecap="round" />
  <line x1="62" y1="94" x2="46" y2="94" stroke="var(--diagram-stroke)" stroke-width="2" stroke-linecap="round" />
  <line x1="62" y1="100" x2="48" y2="102" stroke="var(--diagram-stroke)" stroke-width="2" stroke-linecap="round" />
  <line x1="138" y1="88" x2="152" y2="86" stroke="var(--diagram-stroke)" stroke-width="2" stroke-linecap="round" />
  <line x1="138" y1="94" x2="154" y2="94" stroke="var(--diagram-stroke)" stroke-width="2" stroke-linecap="round" />
  <line x1="138" y1="100" x2="152" y2="102" stroke="var(--diagram-stroke)" stroke-width="2" stroke-linecap="round" />
</svg>
